# xmcd
# 
# Track frame offsets:
#     150
#     18536
#     38597
#     58080
#     77688
#     98787
#     116089
#     136551
#     153314
#     174542
#     191566
#     212026
#     232853
#     252775
#     270246
#     284506
#     303756
# 
# Disc length: 4267
# 
# Revision: 0
# Processed by: cddbd v1.5.2PL0 Copyright (c) Steve Scherf et al.
# Submitted via: fre:ac v1.0.27
# 
DISCID=d710a911
DTITLE=Laura Pausini - Lo Mejor De Laura Pausini Volvere Junto A Ti
DYEAR=2001
DGENRE=Pop
TTITLE0=Volvere junto a ti
TTITLE1=La soledad
TTITLE2=Se fuè
TTITLE3=Amores extraños
TTITLE4=Gente (ordinary people)
TTITLE5=Inolvidable
TTITLE6=Las cosas que vives
TTITLE7=Cuando se ama (sei que me amavas) duo con Gilberto Gil
TTITLE8=Escucha a tu corazon
TTITLE9=La mia risposta
TTITLE10=En ausencia de ti
TTITLE11=Emergencia de amor
TTITLE12=One more time
TTITLE13=Entre tù y mil mares
TTITLE14=Un error de los grandes
TTITLE15=Dos historias iguales
TTITLE16=Dime (duo con José el Francés)
EXTD=
EXTT0=
EXTT1=
EXTT2=
EXTT3=
EXTT4=
EXTT5=
EXTT6=
EXTT7=
EXTT8=
EXTT9=
EXTT10=
EXTT11=
EXTT12=
EXTT13=
EXTT14=
EXTT15=
EXTT16=
PLAYORDER=
